HIERARCHY
ROOT Hips
{
	OFFSET 0.000000 0.000000 0.000000
	CHANNELS 6 Xposition Yposition Zposition Xrotation Yrotation Zrotation
	JOINT LeftUpLeg_virtual
	{
		OFFSET 0.000000 0.000000 0.000000
		CHANNELS 3 Xrotation Yrotation Zrotation
		JOINT LeftUpLeg
		{
			OFFSET 10.205400 -3.823500 0.155100
			CHANNELS 3 Xrotation Yrotation Zrotation
			JOINT LeftLeg
			{
				OFFSET 0.708757 -12.982077 0.567790
				CHANNELS 3 Xrotation Yrotation Zrotation
				JOINT LeftFoot
				{
					OFFSET -0.708756 -10.717838 -2.184338
					CHANNELS 3 Xrotation Yrotation Zrotation
					JOINT LeftToeBase
					{
						OFFSET 0.108149 -7.191104 7.560241
						CHANNELS 3 Xrotation Yrotation Zrotation
						JOINT LeftToe_End
						{
							OFFSET 0.070230 0.081724 4.490308
							CHANNELS 3 Xrotation Yrotation Zrotation
							End Site
							{
								OFFSET 0 0 0
							}
						}
					}
				}
			}
		}
	}
	JOINT RightUpLeg_virtual
	{
		OFFSET 0.000000 0.000000 0.000000
		CHANNELS 3 Xrotation Yrotation Zrotation
		JOINT RightUpLeg
		{
			OFFSET -10.205400 -3.823500 0.005500
			CHANNELS 3 Xrotation Yrotation Zrotation
			JOINT RightLeg
			{
				OFFSET -0.708756 -12.982134 0.610632
				CHANNELS 3 Xrotation Yrotation Zrotation
				JOINT RightFoot
				{
					OFFSET 0.708754 -10.717769 -1.945823
					CHANNELS 3 Xrotation Yrotation Zrotation
					JOINT RightToeBase
					{
						OFFSET -0.108140 -7.191069 7.372968
						CHANNELS 3 Xrotation Yrotation Zrotation
						JOINT RightToe_End
						{
							OFFSET -0.070227 0.081735 4.479403
							CHANNELS 3 Xrotation Yrotation Zrotation
							End Site
							{
								OFFSET 0 0 0
							}
						}
					}
				}
			}
		}
	}
	JOINT Spine_virtual
	{
		OFFSET 0.000000 0.000000 0.000000
		CHANNELS 3 Xrotation Yrotation Zrotation
		JOINT Spine
		{
			OFFSET 0.000000 6.876099 0.125700
			CHANNELS 3 Xrotation Yrotation Zrotation
			JOINT Spine1
			{
				OFFSET 0.000000 5.730043 0.104720
				CHANNELS 3 Xrotation Yrotation Zrotation
				JOINT Spine1_split
				{
					OFFSET 0.000000 5.730043 0.104720
					CHANNELS 3 Xrotation Yrotation Zrotation
					JOINT Spine2
					{
						OFFSET 0.000000 5.730043 0.104720
						CHANNELS 3 Xrotation Yrotation Zrotation
						JOINT Neck_virtual
						{
							OFFSET 0.000000 0.000000 0.000000
							CHANNELS 3 Xrotation Yrotation Zrotation
							JOINT Neck
							{
								OFFSET 0.000000 10.314075 0.188496
								CHANNELS 3 Xrotation Yrotation Zrotation
								JOINT Head
								{
									OFFSET 0.000000 7.643700 -2.377400
									CHANNELS 3 Xrotation Yrotation Zrotation
									JOINT HeadTop_End
									{
										OFFSET 0.000000 43.788605 -13.619600
										CHANNELS 3 Xrotation Yrotation Zrotation
										End Site
										{
											OFFSET 0 0 0
										}
									}
								}
							}
						}
						JOINT LeftShoulder_virtual
						{
							OFFSET 0.000000 0.000000 0.000000
							CHANNELS 3 Xrotation Yrotation Zrotation
							JOINT LeftShoulder
							{
								OFFSET 2.196100 4.412489 0.087492
								CHANNELS 3 Xrotation Yrotation Zrotation
								JOINT LeftShoulder_split
								{
									OFFSET 2.196100 4.412489 0.087492
									CHANNELS 3 Xrotation Yrotation Zrotation
									JOINT LeftArm
									{
										OFFSET 8.771219 -2.981674 -0.026999
										CHANNELS 3 Xrotation Yrotation Zrotation
										JOINT LeftForeArm
										{
											OFFSET 8.512804 0.000000 -0.000000
											CHANNELS 3 Xrotation Yrotation Zrotation
											JOINT LeftHand
											{
												OFFSET 18.484802 0.000000 -0.000000
												CHANNELS 3 Xrotation Yrotation Zrotation
												End Site
												{
													OFFSET 0 0 0
												}
											}
										}
									}
								}
							}
						}
						JOINT RightShoulder_virtual
						{
							OFFSET 0.000000 0.000000 0.000000
							CHANNELS 3 Xrotation Yrotation Zrotation
							JOINT RightShoulder
							{
								OFFSET -2.196100 4.412496 0.070690
								CHANNELS 3 Xrotation Yrotation Zrotation
								JOINT RightShoulder_split
								{
									OFFSET -2.196100 4.412496 0.070690
									CHANNELS 3 Xrotation Yrotation Zrotation
									JOINT RightArm
									{
										OFFSET -8.771282 -2.981682 -0.094208
										CHANNELS 3 Xrotation Yrotation Zrotation
										JOINT RightForeArm
										{
											OFFSET -8.494598 0.000000 0.000000
											CHANNELS 3 Xrotation Yrotation Zrotation
											JOINT RightHand
											{
												OFFSET -18.483803 0.000000 0.000001
												CHANNELS 3 Xrotation Yrotation Zrotation
												End Site
												{
													OFFSET 0 0 0
												}
											}
										}
									}
								}
							}
						}
					}
				}
			}
		}
	}
}
MOTION
Frames: 4
Frame Time: 0.03333333
1.899963 30.664675 16.153196 0.000000 0.000000 0.000000 7.749949 3.433574 0.890876 -29.156069 10.779049 17.077302 40.767449 -2.315134 3.963290 -16.772983 9.787104 -23.328579 1.421054 -3.652812 -1.752903 0.000000 0.000000 0.000000 8.499798 4.986161 0.760571 -30.297483 -3.436964 -6.034091 40.070623 9.491895 -5.594661 -19.712484 -18.066165 24.085675 8.193538 7.159294 -17.227865 0.000000 0.000000 0.000000 6.293512 9.396549 0.093119 8.893349 -4.729800 -2.795103 2.936125 -1.152058 0.965524 -0.076619 0.138453 -0.088862 0.000000 0.000000 0.000000 -1.273147 1.924393 0.186369 22.447114 19.520542 5.426323 -6.591220 44.662720 -17.658860 0.000000 0.000000 0.000000 4.444568 -1.420227 1.079557 9.153388 -12.705827 26.965488 -3.360771 -3.521960 0.564994 -39.003307 -12.167592 -7.511654 167.576396 -77.186165 168.254566 0.000000 0.000000 0.000000 2.959323 0.695630 1.181923 0.345189 2.057064 -14.456193 1.482728 -1.740541 11.823958 -31.501010 32.576188 16.861903 -169.620330 48.582511 172.841735 0.000000 0.000000 0.000000 
1.835146 31.467232 16.463963 0.000000 0.000000 0.000000 8.283910 3.569549 1.184182 -26.593000 11.670784 15.618341 34.991670 -1.984005 4.181398 -14.358186 10.000208 -23.253533 1.722853 -3.780439 -1.638323 0.000000 0.000000 0.000000 9.026405 5.258609 0.952634 -27.462077 -3.571629 -5.716285 34.457099 8.810790 -5.250496 -17.767392 -18.183560 23.987587 7.926160 7.256571 -15.879828 0.000000 0.000000 0.000000 7.177254 9.657052 0.189072 8.450254 -4.968704 -2.705414 2.054173 -1.332301 0.736000 -0.035827 0.147503 -0.077952 0.000000 0.000000 0.000000 -1.928967 1.763975 0.049209 21.375036 19.374912 5.460905 -4.778582 43.005316 -19.221558 0.000000 0.000000 0.000000 3.679926 -1.512575 1.041450 9.098474 -11.961854 26.809345 -3.744351 -3.908405 0.409542 -39.526718 -11.288741 -8.305227 166.971132 -76.747974 167.480173 0.000000 0.000000 0.000000 2.057069 0.425324 0.924512 0.527891 2.466966 -14.185571 1.908860 -2.331983 11.542117 -31.998460 32.263444 17.482171 -170.153276 48.699344 173.402698 0.000000 0.000000 0.000000 
1.778471 32.182648 16.728889 0.000000 0.000000 0.000000 8.748653 3.683617 1.461228 -24.345909 12.567390 14.396087 29.842531 -1.925717 4.357730 -11.991474 9.993678 -23.399531 1.707807 -3.881725 -1.559452 0.000000 0.000000 0.000000 9.418618 5.615862 1.124228 -24.805230 -3.827988 -5.531539 29.535483 8.231351 -4.956132 -16.167348 -18.122302 23.832661 7.800947 7.358941 -14.377203 0.000000 0.000000 0.000000 7.765280 9.982161 0.302857 8.223395 -5.173234 -2.559436 1.285792 -1.536008 0.530169 0.018732 0.169576 -0.075065 0.000000 0.000000 0.000000 -2.429081 1.558874 -0.052120 20.239580 19.225297 5.472377 -3.573910 41.637100 -20.382215 0.000000 0.000000 0.000000 3.027050 -1.618912 1.018533 8.995018 -11.011593 26.606563 -3.998484 -4.362051 0.399435 -39.511555 -10.953499 -8.976501 165.914598 -76.439188 166.205413 0.000000 0.000000 0.000000 1.264702 0.131867 0.679940 0.685448 2.955163 -13.784424 2.003599 -3.021616 10.892670 -32.940968 31.772582 18.613712 -170.819029 49.009992 174.156245 0.000000 0.000000 0.000000 
1.740470 32.743214 16.888203 0.000000 0.000000 0.000000 9.060173 3.876068 1.633095 -22.659207 13.498160 13.613495 25.749583 -2.066561 4.396965 -10.000859 9.803858 -23.668675 1.600022 -3.949626 -1.567667 0.000000 0.000000 0.000000 9.683225 6.046767 1.215274 -22.514028 -4.188667 -5.441024 25.490739 7.886054 -4.701588 -15.096782 -17.797608 23.637620 8.021858 7.422922 -12.965573 0.000000 0.000000 0.000000 8.033966 10.268255 0.402006 8.154359 -5.312750 -2.364970 0.675270 -1.728160 0.359499 0.062810 0.210650 -0.093637 0.000000 0.000000 0.000000 -2.721854 1.329717 -0.116274 19.180725 19.055712 5.551306 -2.734286 40.552530 -21.303526 0.000000 0.000000 0.000000 2.495914 -1.718617 1.015595 8.859860 -9.900009 26.433795 -4.157160 -4.881214 0.616968 -39.052798 -11.156872 -9.586147 165.011865 -75.960767 165.106231 0.000000 0.000000 0.000000 0.645663 -0.157255 0.465610 0.793386 3.394385 -13.325508 1.810926 -3.496195 10.060578 -34.142487 31.004947 20.178602 -171.579461 49.317360 175.050399 0.000000 0.000000 0.000000 
